# xmcd
#
# Track frame offsets:
#	150
#	20329
#	35463
#	54089
#
# Disc length: 957 seconds
#
# Revision: 1
# Processed by: cddbd v1.5.1PL0 Copyright (c) Steve Scherf et al.
# Submitted via: audiograbber 1.83.01
#
DISCID=2303bb04
DTITLE=Nükhet Duru - Nükhet Duru 99
DYEAR=1900
DGENRE=
TTITLE0=Ceribasi
TTITLE1=Bu Is Tamamdir
TTITLE2=Sesini Duyur
TTITLE3=Onun Sucu
EXTD=
EXTT0=
EXTT1=
EXTT2=
EXTT3=
PLAYORDER=
